<?xml version="1.0" standalone="no"?>
<!DOCTYPE svg PUBLIC "-//W3C//DTD SVG 20010904//EN"
 "http://www.w3.org/TR/2001/REC-SVG-20010904/DTD/svg10.dtd">
<svg version="1.0" xmlns="http://www.w3.org/2000/svg"
 width="640.000000pt" height="640.000000pt" viewBox="0 0 640.000000 640.000000"
 preserveAspectRatio="xMidYMid meet">
<metadata>
Created by potrace 1.14, written by Peter Selinger 2001-2017
</metadata>
<g transform="translate(0.000000,640.000000) scale(0.100000,-0.100000)"
fill="#000000" stroke="none">
<path d="M3740 5744 c-65 -24 -108 -55 -163 -120 -20 -24 -48 -99 -82 -223
-41 -148 -65 -234 -85 -301 -11 -36 -22 -74 -25 -85 -3 -17 -22 -81 -92 -325
-8 -30 -22 -74 -29 -97 -7 -23 -16 -52 -18 -65 -3 -13 -28 -102 -56 -198 -54
-185 -54 -185 -69 -240 -25 -92 -63 -227 -67 -240 -3 -8 -5 -16 -5 -17 0 -2
-5 -17 -10 -35 -6 -18 -19 -62 -29 -98 -31 -110 -100 -351 -120 -420 -23 -77
-69 -239 -75 -260 -59 -213 -77 -275 -86 -291 -5 -11 -8 -19 -5 -19 3 0 0 -15
-6 -32 -5 -18 -18 -62 -28 -98 -56 -196 -80 -280 -93 -323 -8 -26 -13 -47 -12
-47 2 0 -3 -16 -11 -35 -8 -19 -14 -38 -14 -42 -1 -12 -20 -83 -35 -130 -8
-23 -16 -52 -19 -65 -2 -13 -9 -35 -15 -50 -6 -16 -8 -28 -5 -28 2 0 0 -8 -5
-18 -5 -10 -19 -52 -29 -93 -11 -41 -48 -169 -81 -285 -34 -116 -64 -220 -66
-230 -2 -11 -18 -68 -35 -129 -26 -91 -31 -121 -26 -173 11 -114 79 -212 182
-262 39 -19 66 -24 134 -24 75 -1 92 2 140 28 68 35 135 106 156 166 13 39 78
258 89 300 2 8 4 15 5 15 1 0 3 11 6 25 2 14 7 32 11 40 3 8 7 20 8 25 2 6 26
91 55 190 28 99 53 185 54 190 1 6 8 30 15 55 7 25 15 56 18 69 2 14 7 29 11
35 3 6 7 16 8 21 2 11 27 99 44 159 7 21 13 46 15 55 2 9 18 63 35 121 36 122
35 116 44 155 4 17 10 37 13 45 3 8 7 20 8 26 3 14 72 256 90 314 7 25 19 65
26 90 7 25 13 47 14 50 1 3 5 19 9 35 4 17 10 37 13 45 4 8 7 17 7 20 5 21 33
121 57 200 15 52 34 120 43 150 23 87 55 199 76 270 11 36 22 74 25 85 2 11
23 83 45 160 23 77 43 145 44 150 1 6 8 30 15 55 8 25 14 50 15 55 1 6 10 37
20 70 9 33 26 90 36 128 11 37 29 98 40 135 11 37 22 76 24 87 2 11 9 32 15
48 6 15 8 27 5 27 -2 0 0 8 5 18 5 10 19 52 30 93 10 41 36 130 56 199 20 69
38 130 39 135 1 6 8 30 15 55 7 25 15 56 18 69 2 14 7 29 11 35 3 6 7 16 8 21
2 11 39 144 52 190 12 40 12 132 0 170 -31 94 -90 165 -173 204 -65 31 -172
38 -235 15z"/>
<path d="M1358 4630 c-21 -5 -57 -22 -80 -36 -24 -15 -311 -295 -639 -623
l-596 -596 -22 -68 c-33 -98 -21 -205 31 -280 29 -42 1173 -1186 1216 -1216
18 -13 38 -24 45 -25 7 -2 21 -7 32 -12 21 -9 133 -11 175 -3 99 20 209 130
229 229 8 42 6 154 -3 175 -5 11 -10 25 -12 32 -6 32 -80 110 -504 536 l-457
457 467 468 c509 510 510 511 516 628 7 138 -58 252 -178 311 -52 26 -162 37
-220 23z"/>
<path d="M4909 4635 c-3 -2 -16 -5 -29 -7 -94 -14 -209 -129 -229 -228 -10
-51 -6 -158 8 -186 7 -16 19 -40 25 -54 6 -14 218 -233 471 -487 253 -254 461
-466 463 -471 1 -4 -209 -219 -466 -478 -467 -469 -469 -470 -491 -535 -87
-261 147 -494 408 -408 l66 22 601 601 c682 682 660 654 658 796 -1 145 26
112 -638 776 -552 551 -638 633 -669 638 -7 1 -18 5 -26 10 -14 9 -145 18
-152 11z"/>
</g>
</svg>
